/* XPM */
static char *_e79325f8adc4f45b3cdc7e37b6f53b3awr6lhJgkhvyeINK[] = {
/* columns rows colors chars-per-pixel */
"128 128 27 1 ",
"  c #23523D",
". c #37624F",
"X c #3D6754",
"o c #476E5C",
"O c #4C7261",
"+ c #4D7362",
"@ c #5A7D6E",
"# c #5E8171",
"$ c #5F8172",
"% c #668778",
"& c #69897B",
"* c #6A8A7C",
"= c #6D8C7F",
"- c #718F82",
"; c #759385",
": c #88A196",
"> c #91A89E",
", c #C5D2CC",
"< c #D4DED9",
"1 c #DAE2DE",
"2 c #E4EAE8",
"3 c #E6EBE9",
"4 c #EAEEEC",
"5 c #EBF0EE",
"6 c #FAFBFA",
"7 c #FCFDFD",
"8 c white",
/* pixels */
"                                                                                                                                ",
"                                                                                                                                ",
"                                                                                                                                ",
"                                                                                                                                ",
"                                                                                                                                ",
"                                                                                                                                ",
"                                                                                                                                ",
"       X;;;;;;;;;;;;;;;;;;;;;;;;;;;;;;;;;;;;;;;;;;;;;;;;;;;;;;;;;;;;;;;;;;;;;;;;;;;;;;;;;;;;;;;;;;;;;;;;;;;;;;;;;;;;;;;;+       ",
"       &8888888888888888888888888888888888888888888888888888888888888888888888888888888888888888888888888888888888888888>       ",
"       &8888888888888888888888888888888888888888888888888888888888888888888888888888888888888888888888888888888888888888>       ",
"       &8888888888888888888888888888888888888888888888888888888888888888888888888888888888888888888888888888888888888888>       ",
"       &8888888888888888888888888888888888888888888888888888888888888888888888888888888888888888888888888888888888888888>       ",
"       &8888888888888888888888888888888888888888888888888888888888888888888888888888888888888888888888888888888888888888>       ",
"       &8888888888888888888888888888888888888888888888888888888888888888888888888888888888888888888888888888888888888888>       ",
"       &8888888888888888888888888888888888888888888888888888888888888888888888888888888888888888888888888888888888888888>       ",
"       &8888888888888888888888888888888888888888888888888888888888888888888888888888888888888888888888888888888888888888>       ",
"       &8888888888888888888888888888888888888888888888888888888888888888888888888888888888888888888888888888888888888888>       ",
"       &8888888888888888888888888888888888888888888888888888888888888888888888888888888888888888888888888888888888888888>       ",
"       &8888888888888888888888888888888888888888888888888888888888888888888888888888888888888888888888888888888888888888>       ",
"       &8888888888888888888888888888888888888888888888888888888888888888888888888888888888888888888888888888888888888888>       ",
"       &8888888888888888888888888888888888888888888888888888888888888888888888888888888888888888888888888888888888888888>       ",
"       &8888888888888888888888888888888888888888888888888888888888888888888888888888888888888888888888888888888888888888>       ",
"       &8888888888888888888888888888888888888888888888888888888888888888888888888888888888888888888888888888888888888888>       ",
"       &8888888888888888888888888888888888888888888888888888888888888888888888888888888888888888888888888888888888888888>       ",
"       &8888888888888888888888888888888888888888888888888888888888888888888888888888888888888888888888888888888888888888>       ",
"       &8888888888888888888888888888888888888888888888888888888888888888888888888888888888888888888888888888888888888888>       ",
"       &8888888888888888888888888888888888888888888888888888888888888888888888888888888888888888888888888888888888888888>       ",
"       &8888888888888888888888888888888888888888888888888888888888888888888888888888888888888888888888888888888888888888>       ",
"       &8888888888888888888888888888888888888888888888888888888888888888888888888888888888888888888888888888888888888888>       ",
"       &8888888888888888888888888888888888888888888888888888888888888888888888888888888888888888888888888888888888888888>       ",
"       &8888888888888888888888888888888888888888888888888888888888888888888888888888888888888888888888888888888888888888>       ",
"       &8888888888888888888888888888888888888888888888888888888888888888888888888888888888888888888888888888888888888888>       ",
"       &8888888888888888888888888888888888888888888888888888888888888888888888888888888888888888888888888888888888888888>       ",
"       &8888888888888888888888888888888888888888888888888888888888888888888888888888888888888888888888888888888888888888>       ",
"       &8888888888888888888888888888888888888888888888888888888888888888888888888888888888888888888888888888888888888888>       ",
"       &8888888888888888888888888888888888888888888888888888888888888888888888888888888888888888888888888888888888888888>       ",
"       &8888888888888888888888888888888888888888888888888888888888888888888888888888888888888888888888888888888888888888>       ",
"       &8888888888888888888888888888888888888888888888888888888888888888888888888888888888888888888888888888888888888888>       ",
"       &8888888888888888888888888888888888888888888888888888888888888888888888888888888888888888888888888888888888888888>       ",
"       &8888888888888888888888888888888888888888888888888888888888888888888888888888888888888888888888888888888888888888>       ",
"       &8888888888888888888888888888888888888888888888888888888888888888888888888888888888888888888888888888888888888888>       ",
"       &8888888888888888888888888888888888888888888888888888888888888888888888888888888888888888888888888888888888888888>       ",
"       &8888888888888888888888888888888888888888888888888888888888888888888888888888888888888888888888888888888888888888>       ",
"       &8888888888888888888888888888888888888888888888888888888888888888888888888888888888888888888888888888888888888888>       ",
"       &8888888888888888888888888888888888888888888*ooooooooooooooooooooooooooo:8888888888888888888888888888888888888888>       ",
"       &8888888888888888888888888888888888888888888+                           -8888888888888888888888888888888888888888>       ",
"       &8888888888888888888888888888888888888888888+                           -8888888888888888888888888888888888888888>       ",
"       &8888888888888888888888888888888888888888888+                           -8888888888888888888888888888888888888888>       ",
"       &8888888888888888888888888888888888888888888+                           -8888888888888888888888888888888888888888>       ",
"       &8888888888888888888888888888888888888888888+                           -8888888888888888888888888888888888888888>       ",
"       &8888888888888888888888888888888888888888888+                           -8888888888888888888888888888888888888888>       ",
"       &8888888888888888888888888888888888888888888+       @,,,,,,,,,,,,,,,,,,,18888888888888888888888888888888888888888>       ",
"       &8888888888888888888888888888888888888888888+       =888888888888888888888888888888888888888888888888888888888888>       ",
"       &8888888888888888888888888888888888888888888+       =888888888888888888888888888888888888888888888888888888888888>       ",
"       &8888888888888888888888888888888888888888888+       =888888888888888888888888888888888888888888888888888888888888>       ",
"       &8888888888888888888888888888888888888888888+       =888888888888888888888888888888888888888888888888888888888888>       ",
"       &8888888888888888888888888888888888888888888+       =888888888888888888888888888888888888888888888888888888888888>       ",
"       &8888888888888888888888888888888888888888888+       =888888888888888888888888888888888888888888888888888888888888>       ",
"       &8888888888888888888888888888888888888888888+       =888888888888888888888888888888888888888888888888888888888888>       ",
"       &8888888888888888888888888888888888888888888+       =888888888888888888888888888888888888888888888888888888888888>       ",
"       &8888888888888888888888888888888888888888888+       =888888888888888888888888888888888888888888888888888888888888>       ",
"       &8888888888888888888888888888888888888888888+       .#################5888888888888888888888888888888888888888888>       ",
"       &8888888888888888888888888888888888888888888+                         2888888888888888888888888888888888888888888>       ",
"       &8888888888888888888888888888888888888888888+                         2888888888888888888888888888888888888888888>       ",
"       &8888888888888888888888888888888888888888888+                         2888888888888888888888888888888888888888888>       ",
"       &8888888888888888888888888888888888888888888+                         2888888888888888888888888888888888888888888>       ",
"       &8888888888888888888888888888888888888888888+                         2888888888888888888888888888888888888888888>       ",
"       &8888888888888888888888888888888888888888888+                         2888888888888888888888888888888888888888888>       ",
"       &8888888888888888888888888888888888888888888+       #<<<<<<<<<<<<<<<<<6888888888888888888888888888888888888888888>       ",
"       &8888888888888888888888888888888888888888888+       =888888888888888888888888888888888888888888888888888888888888>       ",
"       &8888888888888888888888888888888888888888888+       =888888888888888888888888888888888888888888888888888888888888>       ",
"       &8888888888888888888888888888888888888888888+       =888888888888888888888888888888888888888888888888888888888888>       ",
"       &8888888888888888888888888888888888888888888+       =888888888888888888888888888888888888888888888888888888888888>       ",
"       &8888888888888888888888888888888888888888888+       =888888888888888888888888888888888888888888888888888888888888>       ",
"       &8888888888888888888888888888888888888888888+       =888888888888888888888888888888888888888888888888888888888888>       ",
"       &8888888888888888888888888888888888888888888+       =888888888888888888888888888888888888888888888888888888888888>       ",
"       &8888888888888888888888888888888888888888888+       =888888888888888888888888888888888888888888888888888888888888>       ",
"       &8888888888888888888888888888888888888888888+       =888888888888888888888888888888888888888888888888888888888888>       ",
"       &8888888888888888888888888888888888888888888+       =888888888888888888888888888888888888888888888888888888888888>       ",
"       &8888888888888888888888888888888888888888888+       %444444444444444444448888888888888888888888888888888888888888>       ",
"       &8888888888888888888888888888888888888888888+                            2888888888888888888888888888888888888888>       ",
"       &8888888888888888888888888888888888888888888+                            2888888888888888888888888888888888888888>       ",
"       &8888888888888888888888888888888888888888888+                            2888888888888888888888888888888888888888>       ",
"       &8888888888888888888888888888888888888888888+                            2888888888888888888888888888888888888888>       ",
"       &8888888888888888888888888888888888888888888+                            2888888888888888888888888888888888888888>       ",
"       &8888888888888888888888888888888888888888888+                            2888888888888888888888888888888888888888>       ",
"       &8888888888888888888888888888888888888888888+                            2888888888888888888888888888888888888888>       ",
"       &8888888888888888888888888888888888888888888888888888888888888888888888888888888888888888888888888888888888888888>       ",
"       &8888888888888888888888888888888888888888888888888888888888888888888888888888888888888888888888888888888888888888>       ",
"       &8888888888888888888888888888888888888888888888888888888888888888888888888888888888888888888888888888888888888888>       ",
"       &8888888888888888888888888888888888888888888888888888888888888888888888888888888888888888888888888888888888888888>       ",
"       &8888888888888888888888888888888888888888888888888888888888888888888888888888888888888888888888888888888888888888>       ",
"       &8888888888888888888888888888888888888888888888888888888888888888888888888888888888888888888888888888888888888888>       ",
"       &8888888888888888888888888888888888888888888888888888888888888888888888888888888888888888888888888888888888888888>       ",
"       &8888888888888888888888888888888888888888888888888888888888888888888888888888888888888888888888888888888888888888>       ",
"       &8888888888888888888888888888888888888888888888888888888888888888888888888888888888888888888888888888888888888888>       ",
"       &8888888888888888888888888888888888888888888888888888888888888888888888888888888888888888888888888888888888888888>       ",
"       &8888888888888888888888888888888888888888888888888888888888888888888888888888888888888888888888888888888888888888>       ",
"       &8888888888888888888888888888888888888888888888888888888888888888888888888888888888888888888888888888888888888888>       ",
"       &8888888888888888888888888888888888888888888888888888888888888888888888888888888888888888888888888888888888888888>       ",
"       &8888888888888888888888888888888888888888888888888888888888888888888888888888888888888888888888888888888888888888>       ",
"       &8888888888888888888888888888888888888888888888888888888888888888888888888888888888888888888888888888888888888888>       ",
"       &8888888888888888888888888888888888888888888888888888888888888888888888888888888888888888888888888888888888888888>       ",
"       &8888888888888888888888888888888888888888888888888888888888888888888888888888888888888888888888888888888888888888>       ",
"       &8888888888888888888888888888888888888888888888888888888888888888888888888888888888888888888888888888888888888888>       ",
"       &8888888888888888888888888888888888888888888888888888888888888888888888888888888888888888888888888888888888888888>       ",
"       &8888888888888888888888888888888888888888888888888888888888888888888888888888888888888888888888888888888888888888>       ",
"       &8888888888888888888888888888888888888888888888888888888888888888888888888888888888888888888888888888888888888888>       ",
"       &8888888888888888888888888888888888888888888888888888888888888888888888888888888888888888888888888888888888888888>       ",
"       &8888888888888888888888888888888888888888888888888888888888888888888888888888888888888888888888888888888888888888>       ",
"       &8888888888888888888888888888888888888888888888888888888888888888888888888888888888888888888888888888888888888888>       ",
"       &8888888888888888888888888888888888888888888888888888888888888888888888888888888888888888888888888888888888888888>       ",
"       &8888888888888888888888888888888888888888888888888888888888888888888888888888888888888888888888888888888888888888>       ",
"       &8888888888888888888888888888888888888888888888888888888888888888888888888888888888888888888888888888888888888888>       ",
"       &8888888888888888888888888888888888888888888888888888888888888888888888888888888888888888888888888888888888888888>       ",
"       &8888888888888888888888888888888888888888888888888888888888888888888888888888888888888888888888888888888888888888>       ",
"       &8888888888888888888888888888888888888888888888888888888888888888888888888888888888888888888888888888888888888888>       ",
"       &8888888888888888888888888888888888888888888888888888888888888888888888888888888888888888888888888888888888888888>       ",
"       &8888888888888888888888888888888888888888888888888888888888888888888888888888888888888888888888888888888888888888>       ",
"       &8888888888888888888888888888888888888888888888888888888888888888888888888888888888888888888888888888888888888888>       ",
"       X;;;;;;;;;;;;;;;;;;;;;;;;;;;;;;;;;;;;;;;;;;;;;;;;;;;;;;;;;;;;;;;;;;;;;;;;;;;;;;;;;;;;;;;;;;;;;;;;;;;;;;;;;;;;;;;;+       ",
"                                                                                                                                ",
"                                                                                                                                ",
"                                                                                                                                ",
"                                                                                                                                ",
"                                                                                                                                ",
"                                                                                                                                ",
"                                                                                                                                "
};
