/* XPM */
static char *_86329d5688049d4e536f60033fa31d3UIpJ7jkfjXXmCO8D[] = {
/* columns rows colors chars-per-pixel */
"128 128 89 1 ",
"  c #302E5B",
". c #312F5B",
"X c #312F5C",
"o c #32305D",
"O c #33315D",
"+ c #34325E",
"@ c #363460",
"# c #383661",
"$ c #393762",
"% c #3A3863",
"& c #3B3963",
"* c #3E3C66",
"= c #403F68",
"- c #43416A",
"; c #44426B",
": c #46446C",
"> c #47466E",
", c #48466E",
"< c #48476E",
"1 c #49476E",
"2 c #4B4970",
"3 c #515075",
"4 c #535277",
"5 c #565579",
"6 c #57567A",
"7 c #59577B",
"8 c #5A597C",
"9 c #5B5A7D",
"0 c #5D5C7F",
"q c #5E5C7F",
"w c #636183",
"e c #676587",
"r c #686787",
"t c #6B6A8A",
"y c #6E6D8C",
"u c #6F6D8C",
"i c #72708F",
"p c #72718F",
"a c #737291",
"s c #7D7C98",
"d c #817F9B",
"f c #83819C",
"g c #86849F",
"h c #86859F",
"j c #8988A2",
"k c #8D8CA4",
"l c #8D8CA5",
"z c #9291A9",
"x c #9998AE",
"c c #9D9DB2",
"v c #9F9EB3",
"b c #A1A0B4",
"n c #A4A3B7",
"m c #ACABBD",
"M c #B1B0C1",
"N c #B6B5C5",
"B c #B9B8C7",
"V c #BCBCCA",
"C c #BEBDCB",
"Z c #BFBFCD",
"A c #C3C2CF",
"S c #C6C5D1",
"D c #CFCED8",
"F c #CFCED9",
"G c #D0CFD9",
"H c #D2D2DB",
"J c #D3D3DC",
"K c #D5D4DE",
"L c #D8D7E0",
"P c #D9D8E1",
"I c #DDDCE4",
"U c #E0E0E7",
"Y c #E4E4E9",
"T c #E5E5EB",
"R c #E6E6EB",
"E c #E8E8ED",
"W c #EFEFF2",
"Q c #F1F1F4",
"! c #F2F2F4",
"~ c #F2F2F5",
"^ c #F4F4F6",
"/ c #F5F5F7",
"( c #F7F7F9",
") c #FBFBFB",
"_ c #FBFBFC",
"` c #FCFCFD",
"' c #FDFDFE",
"] c #FEFEFE",
"[ c white",
/* pixels */
"                                                                                                                                ",
"                                                                                                                                ",
"                                                                                                                                ",
"                                                                                                                                ",
"                                                                                                                                ",
"                                                                                                                                ",
"                                                                                                                                ",
"       1ssssssssssssssssssssssssssssssssssssssssssssssssssssssssssssssssssssssssssssssssssssssssssssssssssssssssssssssss1       ",
"       p[[[[[[[[[[[[[[[[[[[[[[[[[[[[[[[[[[[[[[[[[[[[[[[[[[[[[[[[[[[[[[[[[[[[[[[[[[[[[[[[[[[[[[[[[[[[[[[[[[[[[[[[[[[[[[[[p       ",
"       p[[[[[[[[[[[[[[[[[[[[[[[[[[[[[[[[[[[[[[[[[[[[[[[[[[[[[[[[[[[[[[[[[[[[[[[[[[[[[[[[[[[[[[[[[[[[[[[[[[[[[[[[[[[[[[[[p       ",
"       p[[[[[[[[[[[[[[[[[[[[[[[[[[[[[[[[[[[[[[[[[[[[[[[[[[[[[[[[[[[[[[[[[[[[[[[[[[[[[[[[[[[[[[[[[[[[[[[[[[[[[[[[[[[[[[[[p       ",
"       p[[[[[[[[[[[[[[[[[[[[[[[[[[[[[[[[[[[[[[[[[[[[[[[[[[[[[[[[[[[[[[[[[[[[[[[[[[[[[[[[[[[[[[[[[[[[[[[[[[[[[[[[[[[[[[[[p       ",
"       p[[[[[[[[[[[[[[[[[[[[[[[[[[[[[[[[[[[[[[[[[[[[[[[[[[[[[[[[[[[[[[[[[[[[[[[[[[[[[[[[[[[[[[[[[[[[[[[[[[[[[[[[[[[[[[[[p       ",
"       p[[[[[[[[[[[[[[[[[[[[[[[[[[[[[[[[[[[[[[[[[[[[[[[[[[[[[[[[[[[[[[[[[[[[[[[[[[[[[[[[[[[[[[[[[[[[[[[[[[[[[[[[[[[[[[[[p       ",
"       p[[[[[[[[[[[[[[[[[[[[[[[[[[[[[[[[[[[[[[[[[[[[[[[[[[[[[[[[[[[[[[[[[[[[[[[[[[[[[[[[[[[[[[[[[[[[[[[[[[[[[[[[[[[[[[[[p       ",
"       p[[[[[[[[[[[[[[[[[[[[[[[[[[[[[[[[[[[[[[[[[[[[[[[[[[[[[[[[[[[[[[[[[[[[[[[[[[[[[[[[[[[[[[[[[[[[[[[[[[[[[[[[[[[[[[[[p       ",
"       p[[[[[[[[[[[[[[[[[[[[[[[[[[[[[[[[[[[[[[[[[[[[[[[[[[[[[[[[[[[[[[[[[[[[[[[[[[[[[[[[[[[[[[[[[[[[[[[[[[[[[[[[[[[[[[[[p       ",
"       p[[[[[[[[[[[[[[[[[[[[[[[[[[[[[[[[[[[[[[[[[[[[[[[[[[[[[[[[[[[[[[[[[[[[[[[[[[[[[[[[[[[[[[[[[[[[[[[[[[[[[[[[[[[[[[[[p       ",
"       p[[[[[[[[[[[[[[[[[[[[[[[[[[[[[[[[[[[[[[[[[[[[[[[[[[[[[[[[[[[[[[[[[[[[[[[[[[[[[[[[[[[[[[[[[[[[[[[[[[[[[[[[[[[[[[[[p       ",
"       p[[[[[[[[[[[[[[[[[[[[[[[[[[[[[[[[[[[[[[[[[[[[[[[[[[[[[[[[[[[[[[[[[[[[[[[[[[[[[[[[[[[[[[[[[[[[[[[[[[[[[[[[[[[[[[[[p       ",
"       p[[[[[[[[[[[[[[[[[[[[[[[[[[[[[[[[[[[[[[[[[[[[[[[[[[[[[[[[[[[[[[[[[[[[[[[[[[[[[[[[[[[[[[[[[[[[[[[[[[[[[[[[[[[[[[[[p       ",
"       p[[[[[[[[[[[[[[[[[[[[[[[[[[[[[[[[[[[[[[[[[[[[[[[[[[[[[[[[[[[[[[[[[[[[[[[[[[[[[[[[[[[[[[[[[[[[[[[[[[[[[[[[[[[[[[[[p       ",
"       p[[[[[[[[[[[[[[[[[[[[[[[[[[[[[[[[[[[[[[[[[[[[[[[[[[[[[[[[[[[[[[[[[[[[[[[[[[[[[[[[[[[[[[[[[[[[[[[[[[[[[[[[[[[[[[[[p       ",
"       p[[[[[[[[[[[[[[[[[[[[[[[[[[[[[[[[[[[[[[[[[[[[[[[[[[[[[[[[[[[[[[[[[[[[[[[[[[[[[[[[[[[[[[[[[[[[[[[[[[[[[[[[[[[[[[[[p       ",
"       p[[[[[[[[[[[[[[[[[[[[[[[[[[[[[[[[[[[[[[[[[[[[[[[[[[[[[[[[[[[[[[[[[[[[[[[[[[[[[[[[[[[[[[[[[[[[[[[[[[[[[[[[[[[[[[[[p       ",
"       p[[[[[[[[[[[[[[[[[[[[[[[[[[[[[[[[[[[[[[[[[[[[[[[[[[[[[[[[[[[[[[[[[[[[[[[[[[[[[[[[[[[[[[[[[[[[[[[[[[[[[[[[[[[[[[[[p       ",
"       p[[[[[[[[[[[[[[[[[[[[[[[[[[[[[[[[[[[[[[[[[[[[[[[[[[[[[[[[[[[[[[[[[[[[[[[[[[[[[[[[[[[[[[[[[[[[[[[[[[[[[[[[[[[[[[[[p       ",
"       p[[[[[[[[[[[[[[[[[[[[[[[[[[[[[[[[[[[[[[[[[[[[[[[[[[[[[[[[[[[[[[[[[[[[[[[[[[[[[[[[[[[[[[[[[[[[[[[[[[[[[[[[[[[[[[[[p       ",
"       p[[[[[[[[[[[[[[[[[[[[[[[[[[[[[[[[[[[[[[[[[[[[[[[[[[[[[[[[[[[[[[[[[[[[[[[[[[[[[[[[[[[[[[[[[[[[[[[[[[[[[[[[[[[[[[[[p       ",
"       p[[[[[[[[[[[[[[[[[[[[[[[[[[[[[[[[[[[[[[[[[[[[[[[[[[[[[[[[[[[[[[[[[[[[[[[[[[[[[[[[[[[[[[[[[[[[[[[[[[[[[[[[[[[[[[[[p       ",
"       p[[[[[[[[[[[[[[[[[[[[[[[[[[[[[[[[[[[[[[[[[[[[[[[[[[[[[[[[[[[[[[[[[[[[[[[[[[[[[[[[[[[[[[[[[[[[[[[[[[[[[[[[[[[[[[[[p       ",
"       p[[[[[[[[[[[[[[[[[[[[[[[[[[[[[[[[[[[[[[[[[[[[[[[[[[[[[[[[[[[[[[[[[[[[[[[[[[[[[[[[[[[[[[[[[[[[[[[[[[[[[[[[[[[[[[[[p       ",
"       p[[[[[[[[[[[[[[[[[[[[[[[[[[[[[[[[[[[[[[[[[[[[[[[[[[[[[[[[[[[[[[[[[[[[[[[[[[[[[[[[[[[[[[[[[[[[[[[[[[[[[[[[[[[[[[[[p       ",
"       p[[[[[[[[[[[[[[[[[[[[[[[[[[[[[[[[[[[[[[[[[[[[[[[[[[[[[[[[[[[[[[[[[[[[[[[[[[[[[[[[[[[[[[[[[[[[[[[[[[[[[[[[[[[[[[[[p       ",
"       p[[[[[[[[[[[[[[[[[[[[[[[[[[[[[[[[[[[[[[[[[[[[[[[[[[[[[[[[[[[[[[[[[[[[[[[[[[[[[[[[[[[[[[[[[[[[[[[[[[[[[[[[[[[[[[[[p       ",
"       p[[[[[[[[[[[[[[[[[[[[[[[[[[[[[[[[[[[[[[[[[[[[[[[[[[[[[[[[[[[[[[[[[[[[[[[[[[[[[[[[[[[[[[[[[[[[[[[[[[[[[[[[[[[[[[[[p       ",
"       p[[[[[[[[[[[[[[[[[[[[[[[[[[[[[[[[[[[[[[[[[[[[[[[[[[[[[[[[[[[[[[[[[[[[[[[[[[[[[[[[[[[[[[[[[[[[[[[[[[[[[[[[[[[[[[[[p       ",
"       p[[[[[[[[[[[[[[[[[[[[[[[[[[[[[[[[[[[[[[[[[[[[[[[[[[[[[[[[[[[[[[[[[[[[[[[[[[[[[[[[[[[[[[[[[[[[[[[[[[[[[[[[[[[[[[[[p       ",
"       p[[[[[[[[[[[[[[[[[[[[[[[[[[[[[[[[[[[[[[[[[[[[[[[[[[[[[[[[[[[[[[[[[[[[[[[[[[[[[[[[[[[[[[[[[[[[[[[[[[[[[[[[[[[[[[[[p       ",
"       p[[[[[[[[[[[[[[[[[[[[[[[[[[[[[[[[[[[[[[[[[[[[[[[[[[[[[[[[[[[[[[[[[[[[[[[[[[[[[[[[[[[[[[[[[[[[[[[[[[[[[[[[[[[[[[[[p       ",
"       p[[[[[[[[[[[[[[[[[[[[[[[[[[[[[[[[[[[[[[[[[[[[[[[[[[[[[[[[[[[[[[[[[[[[[[[[[[[[[[[[[[[[[[[[[[[[[[[[[[[[[[[[[[[[[[[[p       ",
"       p[[[[[[[[[[[[[[[[[[[[[[[[[[[[[[[[[[[[[[[[[[[[[[[[[[[[[[[[[[[[[[[[[[[[[[[[[[[[[[[[[[[[[[[[[[[[[[[[[[[[[[[[[[[[[[[[p       ",
"       p[[[[[[[[[[[[[[[[[[[[[[[[[[[[[[[[[[[[[[[[[[[[[[[[[[[[[[[[[[[[[[[[[[[[[[[[[[[[[[[[[[[[[[[[[[[[[[[[[[[[[[[[[[[[[[[[p       ",
"       p[[[[[[[[[[[[[[[[[[[[[[[[[[[[[[[[[[[[[[[[[[[[[[[[[[[[[[[[[[[[[[[[[[[[[[[[[[[[[[[[[[[[[[[[[[[[[[[[[[[[[[[[[[[[[[[[p       ",
"       p[[[[[[[[[[[[[[[[[[[[[[[[[[[[[[[[[[[[[[0333333338Q[[[[[[[[[[[[[[[[F3333333r[[[[[[[[[[[[[[[[[[[[[[[[[[[[[[[[[[[[[[p       ",
"       p[[[[[[[[[[[[[[[[[[[[[[[[[[[[[[[[[[[[[[*         f[[[[[[[[[[[[[[[[S       2[[[[[[[[[[[[[[[[[[[[[[[[[[[[[[[[[[[[[[p       ",
"       p[[[[[[[[[[[[[[[[[[[[[[[[[[[[[[[[[[[[[[*         XG[[[[[[[[[[[[[[[S       2[[[[[[[[[[[[[[[[[[[[[[[[[[[[[[[[[[[[[[p       ",
"       p[[[[[[[[[[[[[[[[[[[[[[[[[[[[[[[[[[[[[[*          3)[[[[[[[[[[[[[[S       2[[[[[[[[[[[[[[[[[[[[[[[[[[[[[[[[[[[[[[p       ",
"       p[[[[[[[[[[[[[[[[[[[[[[[[[[[[[[[[[[[[[[*           c[[[[[[[[[[[[[[S       2[[[[[[[[[[[[[[[[[[[[[[[[[[[[[[[[[[[[[[p       ",
"       p[[[[[[[[[[[[[[[[[[[[[[[[[[[[[[[[[[[[[[*           #Y[[[[[[[[[[[[[S       2[[[[[[[[[[[[[[[[[[[[[[[[[[[[[[[[[[[[[[p       ",
"       p[[[[[[[[[[[[[[[[[[[[[[[[[[[[[[[[[[[[[[*            t[[[[[[[[[[[[[S       2[[[[[[[[[[[[[[[[[[[[[[[[[[[[[[[[[[[[[[p       ",
"       p[[[[[[[[[[[[[[[[[[[[[[[[[[[[[[[[[[[[[[*             B[[[[[[[[[[[[S       2[[[[[[[[[[[[[[[[[[[[[[[[[[[[[[[[[[[[[[p       ",
"       p[[[[[[[[[[[[[[[[[[[[[[[[[[[[[[[[[[[[[[*             ;Q[[[[[[[[[[[S       2[[[[[[[[[[[[[[[[[[[[[[[[[[[[[[[[[[[[[[p       ",
"       p[[[[[[[[[[[[[[[[[[[[[[[[[[[[[[[[[[[[[[*              h[[[[[[[[[[[S       2[[[[[[[[[[[[[[[[[[[[[[[[[[[[[[[[[[[[[[p       ",
"       p[[[[[[[[[[[[[[[[[[[[[[[[[[[[[[[[[[[[[[*              XH[[[[[[[[[[S       2[[[[[[[[[[[[[[[[[[[[[[[[[[[[[[[[[[[[[[p       ",
"       p[[[[[[[[[[[[[[[[[[[[[[[[[[[[[[[[[[[[[[*               5_[[[[[[[[[S       2[[[[[[[[[[[[[[[[[[[[[[[[[[[[[[[[[[[[[[p       ",
"       p[[[[[[[[[[[[[[[[[[[[[[[[[[[[[[[[[[[[[[*                b[[[[[[[[[S       2[[[[[[[[[[[[[[[[[[[[[[[[[[[[[[[[[[[[[[p       ",
"       p[[[[[[[[[[[[[[[[[[[[[[[[[[[[[[[[[[[[[[*       y*       #Y[[[[[[[[S       2[[[[[[[[[[[[[[[[[[[[[[[[[[[[[[[[[[[[[[p       ",
"       p[[[[[[[[[[[[[[[[[[[[[[[[[[[[[[[[[[[[[[*       Sm        y[[[[[[[[S       2[[[[[[[[[[[[[[[[[[[[[[[[[[[[[[[[[[[[[[p       ",
"       p[[[[[[[[[[[[[[[[[[[[[[[[[[[[[[[[[[[[[[*       S[0        C[[[[[[[S       2[[[[[[[[[[[[[[[[[[[[[[[[[[[[[[[[[[[[[[p       ",
"       p[[[[[[[[[[[[[[[[[[[[[[[[[[[[[[[[[[[[[[*       S[PO       >/[[[[[[S       2[[[[[[[[[[[[[[[[[[[[[[[[[[[[[[[[[[[[[[p       ",
"       p[[[[[[[[[[[[[[[[[[[[[[[[[[[[[[[[[[[[[[*       S[[l        j[[[[[[S       2[[[[[[[[[[[[[[[[[[[[[[[[[[[[[[[[[[[[[[p       ",
"       p[[[[[[[[[[[[[[[[[[[[[[[[[[[[[[[[[[[[[[*       S[[/>       OK[[[[[S       2[[[[[[[[[[[[[[[[[[[[[[[[[[[[[[[[[[[[[[p       ",
"       p[[[[[[[[[[[[[[[[[[[[[[[[[[[[[[[[[[[[[[*       S[[[C        7[[[[[S       2[[[[[[[[[[[[[[[[[[[[[[[[[[[[[[[[[[[[[[p       ",
"       p[[[[[[[[[[[[[[[[[[[[[[[[[[[[[[[[[[[[[[*       S[[[[y        n[[[[S       2[[[[[[[[[[[[[[[[[[[[[[[[[[[[[[[[[[[[[[p       ",
"       p[[[[[[[[[[[[[[[[[[[[[[[[[[[[[[[[[[[[[[*       S[[[[Y#       %E[[[S       2[[[[[[[[[[[[[[[[[[[[[[[[[[[[[[[[[[[[[[p       ",
"       p[[[[[[[[[[[[[[[[[[[[[[[[[[[[[[[[[[[[[[*       S[[[[[c        p[[[S       2[[[[[[[[[[[[[[[[[[[[[[[[[[[[[[[[[[[[[[p       ",
"       p[[[[[[[[[[[[[[[[[[[[[[[[[[[[[[[[[[[[[[*       S[[[[[_3        Z[[S       2[[[[[[[[[[[[[[[[[[[[[[[[[[[[[[[[[[[[[[p       ",
"       p[[[[[[[[[[[[[[[[[[[[[[[[[[[[[[[[[[[[[[*       S[[[[[[F        1/[S       2[[[[[[[[[[[[[[[[[[[[[[[[[[[[[[[[[[[[[[p       ",
"       p[[[[[[[[[[[[[[[[[[[[[[[[[[[[[[[[[[[[[[*       S[[[[[[[d        l[S       2[[[[[[[[[[[[[[[[[[[[[[[[[[[[[[[[[[[[[[p       ",
"       p[[[[[[[[[[[[[[[[[[[[[[[[[[[[[[[[[[[[[[*       S[[[[[[[W=       OLS       2[[[[[[[[[[[[[[[[[[[[[[[[[[[[[[[[[[[[[[p       ",
"       p[[[[[[[[[[[[[[[[[[[[[[[[[[[[[[[[[[[[[[*       S[[[[[[[[M        8x       2[[[[[[[[[[[[[[[[[[[[[[[[[[[[[[[[[[[[[[p       ",
"       p[[[[[[[[[[[[[[[[[[[[[[[[[[[[[[[[[[[[[[*       S[[[[[[[[[w                2[[[[[[[[[[[[[[[[[[[[[[[[[[[[[[[[[[[[[[p       ",
"       p[[[[[[[[[[[[[[[[[[[[[[[[[[[[[[[[[[[[[[*       S[[[[[[[[[I+               2[[[[[[[[[[[[[[[[[[[[[[[[[[[[[[[[[[[[[[p       ",
"       p[[[[[[[[[[[[[[[[[[[[[[[[[[[[[[[[[[[[[[*       S[[[[[[[[[[z               2[[[[[[[[[[[[[[[[[[[[[[[[[[[[[[[[[[[[[[p       ",
"       p[[[[[[[[[[[[[[[[[[[[[[[[[[[[[[[[[[[[[[*       S[[[[[[[[[[(2              2[[[[[[[[[[[[[[[[[[[[[[[[[[[[[[[[[[[[[[p       ",
"       p[[[[[[[[[[[[[[[[[[[[[[[[[[[[[[[[[[[[[[*       S[[[[[[[[[[[A              2[[[[[[[[[[[[[[[[[[[[[[[[[[[[[[[[[[[[[[p       ",
"       p[[[[[[[[[[[[[[[[[[[[[[[[[[[[[[[[[[[[[[*       S[[[[[[[[[[[[a             2[[[[[[[[[[[[[[[[[[[[[[[[[[[[[[[[[[[[[[p       ",
"       p[[[[[[[[[[[[[[[[[[[[[[[[[[[[[[[[[[[[[[*       S[[[[[[[[[[[[E%            2[[[[[[[[[[[[[[[[[[[[[[[[[[[[[[[[[[[[[[p       ",
"       p[[[[[[[[[[[[[[[[[[[[[[[[[[[[[[[[[[[[[[*       S[[[[[[[[[[[[[n            2[[[[[[[[[[[[[[[[[[[[[[[[[[[[[[[[[[[[[[p       ",
"       p[[[[[[[[[[[[[[[[[[[[[[[[[[[[[[[[[[[[[[*       S[[[[[[[[[[[[[[5           2[[[[[[[[[[[[[[[[[[[[[[[[[[[[[[[[[[[[[[p       ",
"       p[[[[[[[[[[[[[[[[[[[[[[[[[[[[[[[[[[[[[[*       S[[[[[[[[[[[[[[JX          2[[[[[[[[[[[[[[[[[[[[[[[[[[[[[[[[[[[[[[p       ",
"       p[[[[[[[[[[[[[[[[[[[[[[[[[[[[[[[[[[[[[[*       S[[[[[[[[[[[[[[[h          2[[[[[[[[[[[[[[[[[[[[[[[[[[[[[[[[[[[[[[p       ",
"       p[[[[[[[[[[[[[[[[[[[[[[[[[[[[[[[[[[[[[[*       S[[[[[[[[[[[[[[[Q-         2[[[[[[[[[[[[[[[[[[[[[[[[[[[[[[[[[[[[[[p       ",
"       p[[[[[[[[[[[[[[[[[[[[[[[[[[[[[[[[[[[[[[*       S[[[[[[[[[[[[[[[[N         2[[[[[[[[[[[[[[[[[[[[[[[[[[[[[[[[[[[[[[p       ",
"       p[[[[[[[[[[[[[[[[[[[[[[[[[[[[[[[[[[[[[[*       S[[[[[[[[[[[[[[[[[e        2[[[[[[[[[[[[[[[[[[[[[[[[[[[[[[[[[[[[[[p       ",
"       p[[[[[[[[[[[[[[[[[[[[[[[[[[[[[[[[[[[[[[*       S[[[[[[[[[[[[[[[[[U@       2[[[[[[[[[[[[[[[[[[[[[[[[[[[[[[[[[[[[[[p       ",
"       p[[[[[[[[[[[[[[[[[[[[[[[[[[[[[[[[[[[[[[[[[[[[[[[[[[[[[[[[[[[[[[[[[[[[[[[[[[[[[[[[[[[[[[[[[[[[[[[[[[[[[[[[[[[[[[[[p       ",
"       p[[[[[[[[[[[[[[[[[[[[[[[[[[[[[[[[[[[[[[[[[[[[[[[[[[[[[[[[[[[[[[[[[[[[[[[[[[[[[[[[[[[[[[[[[[[[[[[[[[[[[[[[[[[[[[[[p       ",
"       p[[[[[[[[[[[[[[[[[[[[[[[[[[[[[[[[[[[[[[[[[[[[[[[[[[[[[[[[[[[[[[[[[[[[[[[[[[[[[[[[[[[[[[[[[[[[[[[[[[[[[[[[[[[[[[[[p       ",
"       p[[[[[[[[[[[[[[[[[[[[[[[[[[[[[[[[[[[[[[[[[[[[[[[[[[[[[[[[[[[[[[[[[[[[[[[[[[[[[[[[[[[[[[[[[[[[[[[[[[[[[[[[[[[[[[[[p       ",
"       p[[[[[[[[[[[[[[[[[[[[[[[[[[[[[[[[[[[[[[[[[[[[[[[[[[[[[[[[[[[[[[[[[[[[[[[[[[[[[[[[[[[[[[[[[[[[[[[[[[[[[[[[[[[[[[[[p       ",
"       p[[[[[[[[[[[[[[[[[[[[[[[[[[[[[[[[[[[[[[[[[[[[[[[[[[[[[[[[[[[[[[[[[[[[[[[[[[[[[[[[[[[[[[[[[[[[[[[[[[[[[[[[[[[[[[[[p       ",
"       p[[[[[[[[[[[[[[[[[[[[[[[[[[[[[[[[[[[[[[[[[[[[[[[[[[[[[[[[[[[[[[[[[[[[[[[[[[[[[[[[[[[[[[[[[[[[[[[[[[[[[[[[[[[[[[[[p       ",
"       p[[[[[[[[[[[[[[[[[[[[[[[[[[[[[[[[[[[[[[[[[[[[[[[[[[[[[[[[[[[[[[[[[[[[[[[[[[[[[[[[[[[[[[[[[[[[[[[[[[[[[[[[[[[[[[[[p       ",
"       p[[[[[[[[[[[[[[[[[[[[[[[[[[[[[[[[[[[[[[[[[[[[[[[[[[[[[[[[[[[[[[[[[[[[[[[[[[[[[[[[[[[[[[[[[[[[[[[[[[[[[[[[[[[[[[[[p       ",
"       p[[[[[[[[[[[[[[[[[[[[[[[[[[[[[[[[[[[[[[[[[[[[[[[[[[[[[[[[[[[[[[[[[[[[[[[[[[[[[[[[[[[[[[[[[[[[[[[[[[[[[[[[[[[[[[[[p       ",
"       p[[[[[[[[[[[[[[[[[[[[[[[[[[[[[[[[[[[[[[[[[[[[[[[[[[[[[[[[[[[[[[[[[[[[[[[[[[[[[[[[[[[[[[[[[[[[[[[[[[[[[[[[[[[[[[[[p       ",
"       p[[[[[[[[[[[[[[[[[[[[[[[[[[[[[[[[[[[[[[[[[[[[[[[[[[[[[[[[[[[[[[[[[[[[[[[[[[[[[[[[[[[[[[[[[[[[[[[[[[[[[[[[[[[[[[[[p       ",
"       p[[[[[[[[[[[[[[[[[[[[[[[[[[[[[[[[[[[[[[[[[[[[[[[[[[[[[[[[[[[[[[[[[[[[[[[[[[[[[[[[[[[[[[[[[[[[[[[[[[[[[[[[[[[[[[[[p       ",
"       p[[[[[[[[[[[[[[[[[[[[[[[[[[[[[[[[[[[[[[[[[[[[[[[[[[[[[[[[[[[[[[[[[[[[[[[[[[[[[[[[[[[[[[[[[[[[[[[[[[[[[[[[[[[[[[[[p       ",
"       p[[[[[[[[[[[[[[[[[[[[[[[[[[[[[[[[[[[[[[[[[[[[[[[[[[[[[[[[[[[[[[[[[[[[[[[[[[[[[[[[[[[[[[[[[[[[[[[[[[[[[[[[[[[[[[[[p       ",
"       p[[[[[[[[[[[[[[[[[[[[[[[[[[[[[[[[[[[[[[[[[[[[[[[[[[[[[[[[[[[[[[[[[[[[[[[[[[[[[[[[[[[[[[[[[[[[[[[[[[[[[[[[[[[[[[[[p       ",
"       p[[[[[[[[[[[[[[[[[[[[[[[[[[[[[[[[[[[[[[[[[[[[[[[[[[[[[[[[[[[[[[[[[[[[[[[[[[[[[[[[[[[[[[[[[[[[[[[[[[[[[[[[[[[[[[[[p       ",
"       p[[[[[[[[[[[[[[[[[[[[[[[[[[[[[[[[[[[[[[[[[[[[[[[[[[[[[[[[[[[[[[[[[[[[[[[[[[[[[[[[[[[[[[[[[[[[[[[[[[[[[[[[[[[[[[[[p       ",
"       p[[[[[[[[[[[[[[[[[[[[[[[[[[[[[[[[[[[[[[[[[[[[[[[[[[[[[[[[[[[[[[[[[[[[[[[[[[[[[[[[[[[[[[[[[[[[[[[[[[[[[[[[[[[[[[[[p       ",
"       p[[[[[[[[[[[[[[[[[[[[[[[[[[[[[[[[[[[[[[[[[[[[[[[[[[[[[[[[[[[[[[[[[[[[[[[[[[[[[[[[[[[[[[[[[[[[[[[[[[[[[[[[[[[[[[[[p       ",
"       p[[[[[[[[[[[[[[[[[[[[[[[[[[[[[[[[[[[[[[[[[[[[[[[[[[[[[[[[[[[[[[[[[[[[[[[[[[[[[[[[[[[[[[[[[[[[[[[[[[[[[[[[[[[[[[[[p       ",
"       p[[[[[[[[[[[[[[[[[[[[[[[[[[[[[[[[[[[[[[[[[[[[[[[[[[[[[[[[[[[[[[[[[[[[[[[[[[[[[[[[[[[[[[[[[[[[[[[[[[[[[[[[[[[[[[[[p       ",
"       p[[[[[[[[[[[[[[[[[[[[[[[[[[[[[[[[[[[[[[[[[[[[[[[[[[[[[[[[[[[[[[[[[[[[[[[[[[[[[[[[[[[[[[[[[[[[[[[[[[[[[[[[[[[[[[[[p       ",
"       p[[[[[[[[[[[[[[[[[[[[[[[[[[[[[[[[[[[[[[[[[[[[[[[[[[[[[[[[[[[[[[[[[[[[[[[[[[[[[[[[[[[[[[[[[[[[[[[[[[[[[[[[[[[[[[[[p       ",
"       p[[[[[[[[[[[[[[[[[[[[[[[[[[[[[[[[[[[[[[[[[[[[[[[[[[[[[[[[[[[[[[[[[[[[[[[[[[[[[[[[[[[[[[[[[[[[[[[[[[[[[[[[[[[[[[[[p       ",
"       p[[[[[[[[[[[[[[[[[[[[[[[[[[[[[[[[[[[[[[[[[[[[[[[[[[[[[[[[[[[[[[[[[[[[[[[[[[[[[[[[[[[[[[[[[[[[[[[[[[[[[[[[[[[[[[[[p       ",
"       p[[[[[[[[[[[[[[[[[[[[[[[[[[[[[[[[[[[[[[[[[[[[[[[[[[[[[[[[[[[[[[[[[[[[[[[[[[[[[[[[[[[[[[[[[[[[[[[[[[[[[[[[[[[[[[[[p       ",
"       p[[[[[[[[[[[[[[[[[[[[[[[[[[[[[[[[[[[[[[[[[[[[[[[[[[[[[[[[[[[[[[[[[[[[[[[[[[[[[[[[[[[[[[[[[[[[[[[[[[[[[[[[[[[[[[[[p       ",
"       p[[[[[[[[[[[[[[[[[[[[[[[[[[[[[[[[[[[[[[[[[[[[[[[[[[[[[[[[[[[[[[[[[[[[[[[[[[[[[[[[[[[[[[[[[[[[[[[[[[[[[[[[[[[[[[[[p       ",
"       p[[[[[[[[[[[[[[[[[[[[[[[[[[[[[[[[[[[[[[[[[[[[[[[[[[[[[[[[[[[[[[[[[[[[[[[[[[[[[[[[[[[[[[[[[[[[[[[[[[[[[[[[[[[[[[[[p       ",
"       p[[[[[[[[[[[[[[[[[[[[[[[[[[[[[[[[[[[[[[[[[[[[[[[[[[[[[[[[[[[[[[[[[[[[[[[[[[[[[[[[[[[[[[[[[[[[[[[[[[[[[[[[[[[[[[[[p       ",
"       p[[[[[[[[[[[[[[[[[[[[[[[[[[[[[[[[[[[[[[[[[[[[[[[[[[[[[[[[[[[[[[[[[[[[[[[[[[[[[[[[[[[[[[[[[[[[[[[[[[[[[[[[[[[[[[[[p       ",
"       p[[[[[[[[[[[[[[[[[[[[[[[[[[[[[[[[[[[[[[[[[[[[[[[[[[[[[[[[[[[[[[[[[[[[[[[[[[[[[[[[[[[[[[[[[[[[[[[[[[[[[[[[[[[[[[[[p       ",
"       1ssssssssssssssssssssssssssssssssssssssssssssssssssssssssssssssssssssssssssssssssssssssssssssssssssssssssssssssss1       ",
"                                                                                                                                ",
"                                                                                                                                ",
"                                                                                                                                ",
"                                                                                                                                ",
"                                                                                                                                ",
"                                                                                                                                ",
"                                                                                                                                "
};
